<?xml version="1.0" encoding="utf-8"?>
<!-- Generator: Adobe Illustrator 14.0.0, SVG Export Plug-In . SVG Version: 6.00 Build 43363)  -->
<!DOCTYPE svg PUBLIC "-//W3C//DTD SVG 1.1//EN" "http://www.w3.org/Graphics/SVG/1.1/DTD/svg11.dtd">
<svg version="1.1" id="Layer_1" xmlns="http://www.w3.org/2000/svg" xmlns:xlink="http://www.w3.org/1999/xlink" x="0px" y="0px"
	 width="612px" height="792px" viewBox="0 0 612 792" enable-background="new 0 0 612 792" xml:space="preserve">
<g>
	<polygon fill-rule="evenodd" clip-rule="evenodd" fill="#FFFFFF" points="209,300 401.756,300 401.756,492.756 209,492.756 
		209,300 	"/>
	<path fill-rule="evenodd" clip-rule="evenodd" d="M350.24,311.943c16.451,10.487,5.358,34.404-10.932,29.149
		c2.452,3.24,4.335,9.721,4.367,15.338c9.515-16.028,33.43-10.297,29.039,10.439c-4.149,19.594-28.688,19.393-31.469,0.792
		c-0.033-0.098-0.065,0.033-0.131,0c-3.328,7.565-12.175,15.469-22.761,16.324c3.262,5.54,10.46,11.38,14.813,13.663
		c2.167-0.607,6.52-1.314,7.816,1.773c2.562-0.065,5.156,0.032,7.554,0.689c0.854-0.328,1.576-0.805,2.397-1.183
		c3.695-3.147,7.584-10.479,11.43-8.046c5.438,3.439,4.841,15.997-5.025,17.177c-0.127,0.135-0.443,0.345-0.722,0.427
		c-0.1,6.404-1.534,13.723-2.76,18.097c-0.374,10.696-3.114,17.09-6.666,17.275c-2.743,6.7-7.275,6.142-9.657,2.792
		c-4.86-0.246-4.871-11.02-7.718-17.145c-2.167-5.024-3.843-10.706-3.12-16.52c-1.511-1.445-2.299-3.679-1.938-5.879
		c-5.683-3.367-10.214-9.229-14.057-15.042c-12.929,13.17,2.036,45.553,3.317,49.067c2.988,0.723,7.053,2.627,7.053,6.421
		c7.062,5.106,15.641,6.157,22.111,10.953c8.703,3.433,26.176-1.347,28.41-17.046c0.501,12.817-15.561,21.381-26.012,19.147
		c5.67,5.003,8.883,17.558-9.295,22.465c-18.846,5.087-36.401-7.127-40.332-20.593c-13.422,8.474-38.273,4.183-46.704-8.375
		c-2.528-3.875-3.524-8.692-0.459-13.4c3.382-5.192,11.199-6.798,17.998-5.32c4.171,0.689,7.981,2.168,11.987,3.252
		c0.296-1.019,0.723-2.168,1.577-2.791c-1.149-3.449-2.036-7.116-2.595-10.74c-3.481-1.609-6.634-4.5-8.638-7.62
		c1.139-1.511,3.514-7.488,4.171-10.871c-0.854-5.518,0.789-11.692,3.285-15.337c-1.128,0.317-2.365,0.46-3.547,0.591
		c-0.602,1.204-2.102,2.66-3.711,3.021c-1.675,4.236-4.105,8.49-7.816,11.167c-10.187,7.416-11.922,14.533-14.648,15.633
		c-1.511,0.616-5.09,0.509-6.24-3.743c-2.988-3.121-2.956-8.179-2.462-12.284c-2.792-6.355,4.499-16.225,5.189-17.375
		c0.525-4.006,3.99-10.477,8.473-13.729c-0.016-6.108,1.167-15.107,9.82-15.601c2.981,0.017,4.821,2.576,5.05,4.398
		c0.341,2.72-2.685,5.456-2.85,11.367c1.478,1.216,2.989,2.661,4.073,4.138c1.412,0.789,2.677,2.053,3.416,3.383
		c5.008,0.262,15.321-1.331,18.523-2.661c1.215-0.821,2.627-1.248,3.875-1.937c-0.679-0.537-1.445-1.796-2.112-2.431
		c-8.414-2.588-15.116-11.424-12.273-18.983c-9.601-14.017,10.122-22.64,9.525-5.518c0.46,0.098,0.919,0.197,1.346,0.328
		c1.584-10.8,15.79-27.096,35.898-19.016C318.759,319.11,332.803,300.826,350.24,311.943L350.24,311.943z M287.777,426.518
		c1.051,3.219,2.2,6.755,3.58,9.656c2.627,0.886,5.824,2.978,6.273,5.944c0.624,0.394,1.314,0.985,2.004,1.412
		c0.492-1.052,1.839-2.037,3.152-2.397c-1.413-3.186-2.978-6.843-3.974-9.787C294.729,430.963,290.684,429.194,287.777,426.518
		L287.777,426.518z"/>
	<path fill-rule="evenodd" clip-rule="evenodd" fill="#FEE4CD" d="M311.03,361.061c9.968-5.846,25.174-3.316,24.436,8.671
		c-0.572,9.278-13.104,12.907-17.243,13.433c0.723-1.183,1.121-1.79,1.691-4.352c-6.815,13.318-15.683,6.454-18.736,3.596
		c-1.085-1.116-2.595-2.857-3.875-3.547c0.131,0.46,0.525,0.624,0.755,1.019c-1.938-1.019-3.596-2.315-4.86-4.105
		c1.412,0.427,2.857,0.657,4.269,1.051c3.745,3.022,7.586,9.032,13.63,7.357c7.192-2.168,6.371-10.379,9.394-15.765
		c0.525-0.657,0.92-1.543,1.642-1.839c1.773,0.427,3.482,1.183,4.894,2.397c-0.427-3.728-9.048-5.058-11.594-3.087
		c1.397,0,3.597,0.017,4.73,0.296c-17.457,20.592-43.978,3.76-40.036-9.032c4.007,3.367,8.901,0.246,8.736-5.518
		c3.317,0.46,6.076,2.803,7.619,5.595c0.088-1.435-1.018-2.638-1.708-3.427c0.474-0.498,1.186-1.479,1.679-2.761
		c1.15-2.985,2.893-7.772,1.386-8.515c-1.889-0.931-5.261,4.324-5.792,9.174c-0.296,0-0.591-0.264-0.919-0.362
		c1.084-7.85,7.127-14.714,13.761-18.212c0.115,0.673,0.115,1.921-0.147,2.628c3.316-2.562,7.591-6.034,12.233-4.516
		C326.036,334.202,316.088,354.296,311.03,361.061L311.03,361.061z"/>
	<path fill-rule="evenodd" clip-rule="evenodd" d="M306.093,340.972c2.898,1.456-1.238,9.12-2.167,11.152
		c-0.205,0.955-1.817,3.333-2.748,3.813c-0.515,0.581-1.728,0.464-2.261,0.072C294.976,353.107,302.144,338.989,306.093,340.972
		L306.093,340.972z"/>
	<path fill-rule="evenodd" clip-rule="evenodd" fill="#FFFFFF" d="M303.739,350.814c-1.007-2.781-4.805,1.806-4.104,4.795
		c-1.983-0.11-1.144-5.379,0.554-8.718c1.676-3.3,4.354-6.072,5.62-5.318C307.653,342.673,304.593,349.172,303.739,350.814
		L303.739,350.814z"/>
	<path fill-rule="evenodd" clip-rule="evenodd" fill="#FFFFFF" d="M295.956,350.256c-0.646-2.627-2.595,0.766-2.463,2.364
		c-0.295-0.197-0.646-0.438-0.887-0.558c0.186-3.109,3.172-9.357,4.795-9.01C298.52,343.292,296.71,348.121,295.956,350.256
		L295.956,350.256z"/>
	<path fill-rule="evenodd" clip-rule="evenodd" fill="#FFFFFF" d="M261.502,360.012c1.375-0.092,3.95,0.84,4.139,3.645
		c0.074,2.011-2.223,4.915-2.66,10.509c-1.051-0.624-2.65-1.127-3.777-0.766c3.021,0.919,5.189,2.77,7.028,4.871
		c-6.338-0.536-8.474,4.971-8.309,7.259c-8.156-0.942-10.565,10.203-10.018,11.462c0.658-3.941,4.675-11.561,10.018-10.871
		c0.394,3.416,2.233,6.733,5.354,8.178c1.542,0.625,3.186,1.15,4.992,0.887c-2.518,6.59-7.291,9.557-11.889,13.596
		c-3.711,3.153-6.076,7.193-8.736,10.938c-0.863,1.232-2.209,1.58-3.384,1.149c-3.284-1.204-4.729-8.319,0.559-16.98
		c0.492,1.118,1.149,2.847,1.97,3.22c-1.938-4.828-3.153-10.335-2.66-16.05c-0.591,0.295-0.657,2.223-0.788,3.438
		c-2.124,2.069-3.81,5.682-4.762,9.064c-0.821-5.999,5.561-14.943,7.039-17.45c-0.482,0.12-0.898,0.438-1.127,0.635
		c1.905-5.353,5.09-9.688,9.524-13.137c0-0.263-0.92,0.065-1.018,0.196C252.307,368.725,254.988,360.45,261.502,360.012
		L261.502,360.012z"/>
	<path fill-rule="evenodd" clip-rule="evenodd" fill="#F79C85" d="M317.073,375.25c-2.217,8.917-9.048,10.395-14.023,5.518
		c1.379-2.299,4.236-2.989,6.831-2.759c-0.771,0.919-1.281,2.003-1.297,2.972C309.405,379.962,312.064,375.808,317.073,375.25
		L317.073,375.25z"/>
	<path fill-rule="evenodd" clip-rule="evenodd" fill="#FFFFFF" d="M270.173,382.179c-0.812,0.136-2.755,0.154-3.746,0.12
		c-4.483,0.446-3.115,7.661,0.826,9.473c1.019,0.396,3.107,0.414,4.562,0.293c-3.941,5.014-12.385,0.978-12.877-5.646
		C258.445,379.796,266.375,376.574,270.173,382.179L270.173,382.179z"/>
	<path fill-rule="evenodd" clip-rule="evenodd" fill="#FFFFFF" d="M280.684,386.941c1.741-2.562,4.63-4.992,7.783-6.24
		C285.643,382.376,283.146,384.675,280.684,386.941L280.684,386.941z"/>
	<path fill-rule="evenodd" clip-rule="evenodd" fill="#EF3E42" d="M305.513,398.437c-3.038,10.657-0.131,21.939,2.595,30.019
		c-5.173-2.233-18.819-8.227-20.921-5.058c-0.821-1.938-1.133-4.647-2.184-6.618c-0.33,1.167,0.18,2.349,0.279,3.235
		c-1.741-0.427-3.416-1.479-5.091-2.2c1.134,1.461,3.35,2.528,5.288,3.087c0.328,1.412,0.525,3.448,1.576,4.795
		c-9.048,0.985-16.011-6.471-16.881-8.145c1.773-2.661,2.627-5.78,3.514-8.901c0.427,1.117,0.789,2.168,1.412,3.121
		c-0.476-3.038-3.974-14.741,5.518-23.878C293,382.935,302.918,392.197,305.513,398.437L305.513,398.437z"/>
	<path fill-rule="evenodd" clip-rule="evenodd" fill="#FFFFFF" d="M309.792,390.617c0.113,0.207,0.434,0.692,0.551,0.939
		c-0.395-0.072-1.321-1.444-2.433-2.513C308.531,389.435,309.27,389.939,309.792,390.617L309.792,390.617z"/>
	<path fill-rule="evenodd" clip-rule="evenodd" d="M277.087,403.067c-3.724-1.625,1.345-13.846,4.778-12.563
		C284.936,391.653,279.75,404.229,277.087,403.067L277.087,403.067z"/>
	<path fill-rule="evenodd" clip-rule="evenodd" fill="#FFFFFF" d="M277.161,402.526c-2.517-0.994,1.892-12.632,4.532-11.471
		C283.983,392.062,278.851,403.191,277.161,402.526L277.161,402.526z"/>
	<path fill-rule="evenodd" clip-rule="evenodd" d="M293.684,399.333c-0.983,3.301-3.018,6.205-4.938,5.697
		c-4.928-1.305-1.041-14.795,3.375-13.844C294.598,391.72,294.75,395.756,293.684,399.333L293.684,399.333z"/>
	<path fill-rule="evenodd" clip-rule="evenodd" fill="#FFFFFF" d="M362.458,392.205c5.16,5.459,1.66,15.374-7.889,15.286
		c0.263,0.315,1.041,0.471,1.424,0.536c-0.608,0.316-2.004,0.518-2.891,0.788c0.432,0.264,1.708,0.329,2.562,0.132
		c-0.8,12.602-2.452,15.502-2.759,18.326c-0.581,5.376-1.708,14.353-5.287,15.765c1.51-4.335,3.306-13.432,2.43-16.454
		c0.263-0.229,0.788-0.701,0.941-1.149c-2.485,1.478-8.155,3.109-11.254,3.81c0.679,0.351,1.368,0.285,1.971,0.197
		c2.627,6.602-0.351,16.641-3.854,16.148c-3.504-0.493-3.481-6.624-4.752-10.139c-2.102-7.454-6.733-14.318-5.485-22.728
		c1.665-7.597,7.588-15.129,24.655-11.275c-0.832-0.603-1.653-0.887-2.223-1.105c0.985-0.395,4.555-2.354,5.102-3.285
		c-0.591,0.077-1.029,0.329-1.325,0.395C355.796,395.415,359.673,389.257,362.458,392.205L362.458,392.205z"/>
	<path fill-rule="evenodd" clip-rule="evenodd" fill="#FFFFFF" d="M293.001,398.823c-0.98,3.12-2.921,6.002-4.172,5.59
		c-1.093-0.357-2.228-3.492-1.222-6.906c0.901-3.057,2.799-5.973,4.457-5.622C293.845,392.261,293.98,395.704,293.001,398.823
		L293.001,398.823z"/>
	<path fill-rule="evenodd" clip-rule="evenodd" fill="#FFFFFF" d="M244.72,403.429c-3.196,2.956-4.434,7.619-4.434,12.119
		c-2.726-5.846-0.625-14.943,3.055-19.969C243.505,398.272,243.833,400.965,244.72,403.429L244.72,403.429z"/>
	<path fill-rule="evenodd" clip-rule="evenodd" fill="#FFFFFF" d="M340.228,399.575c-6.831,0.985-11.966,5.736-13.399,12.031
		c-2.901-3.503-0.187-7.719,2.441-10.236C331.841,398.906,338.071,396.225,340.228,399.575L340.228,399.575z"/>
	<path fill-rule="evenodd" clip-rule="evenodd" d="M342.801,420.518c2.288-4.772,2.495-12.929-3.854-17.658
		C342.121,403.101,348.56,412.679,342.801,420.518L342.801,420.518z"/>
	<path fill-rule="evenodd" clip-rule="evenodd" fill="#EF3E42" d="M296.645,424.94c0.591,1.773,1.478,4.149,1.806,5.321
		c-4.447-0.443-10.283-3.792-10.707-5.923C287.341,422.306,294.937,424.152,296.645,424.94L296.645,424.94z"/>
	<path fill-rule="evenodd" clip-rule="evenodd" fill="#FFFFFF" d="M338.685,446.65c5.769-1.817,5.856-14.111,3.875-17.309
		c1.773-0.404,4.664-1.28,6.799-2.365C349.73,431.783,346.084,454.335,338.685,446.65L338.685,446.65z"/>
	<path fill-rule="evenodd" clip-rule="evenodd" fill="#FDB827" d="M278.614,439.556c0.058,7.749,17.7,11.692,19.016,3.712
		c0.591,0.295,1.117,0.755,1.609,1.215c-0.262,0.821-0.229,1.773,0,2.595c-4.598,2.988-4.565,9.064-3.678,14.155
		c-4.139,3.404-20.396,6.81-32.548,1.445c-14.532-6.415-18.567-16.147-11.232-23.154S273.688,438.308,278.614,439.556
		L278.614,439.556z"/>
	<path fill-rule="evenodd" clip-rule="evenodd" fill="#FDB827" d="M281.802,439.29c3.275,3.344,10.212,4.331,10.935,0.464
		c-0.164-0.723-0.46-1.544-0.788-2.3c4.157,2.083,5.123,4.126,4.868,5.642c-1.041,6.186-16.196,3.641-17.127-3.421
		c-0.122-0.928,0.181-1.937,0.995-2.845C281.069,437.625,281.383,438.645,281.802,439.29L281.802,439.29z"/>
	<path fill-rule="evenodd" clip-rule="evenodd" d="M285.413,451.166c-3.366-5.033-9.041-8.44-10.575-10.592
		C277.834,441.444,284.912,448.342,285.413,451.166L285.413,451.166z"/>
	<path fill-rule="evenodd" clip-rule="evenodd" fill="#FDB827" d="M304.79,444.737c1.749,1.993,9.566,3.925,10.576,0.106
		c-0.229-0.919-0.525-1.773-0.854-2.66c2.898,0.779,7.615,3.384,4.696,7.159c-3.489,4.516-17.678,3.613-19.278-3.612
		c-0.254-1.14,0.936-3.047,3.12-3.843C303.636,442.841,304.004,443.793,304.79,444.737L304.79,444.737z"/>
	<path fill-rule="evenodd" clip-rule="evenodd" fill="#FDB827" d="M313.428,453.186c2.923-0.46,6.24-1.707,7.291-4.631
		c6.578,4.691,15.866,6.119,21.905,11.017c10.705,8.37,7.717,20.051-11.033,22.615c-17.621,2.41-31.18-9.185-34.552-20.527
		c-1.215-4.663-1.521-10.63,2.595-13.761C302.557,452.102,308.041,453.679,313.428,453.186L313.428,453.186z"/>
	<path fill-rule="evenodd" clip-rule="evenodd" d="M330.572,454.96c-8.384-1.117-18.549,0.628-26.16,3.929
		C308.342,454.898,322.632,452.726,330.572,454.96L330.572,454.96z"/>
</g>
</svg>
