<svg width="112" height="44" viewBox="0 0 112 44" fill="none" xmlns="http://www.w3.org/2000/svg">
<path d="M13.715 43.36C9.725 43.36 6.53 42.61 4.13 41.11C1.73 39.58 0.53 37.255 0.53 34.135C0.53 32.485 0.815 31.225 1.385 30.355C1.955 29.485 2.795 29.05 3.905 29.05C4.715 29.05 5.375 29.26 5.885 29.68C6.395 30.1 6.65 30.64 6.65 31.3C6.65 31.9 6.605 32.425 6.515 32.875C6.515 32.995 6.485 33.205 6.425 33.505C6.395 33.805 6.38 34.12 6.38 34.45C6.38 35.8 7.055 36.805 8.405 37.465C9.785 38.125 11.705 38.455 14.165 38.455C16.715 38.455 18.71 38.005 20.15 37.105C21.59 36.175 22.31 34.885 22.31 33.235C22.31 32.215 21.98 31.345 21.32 30.625C20.66 29.875 19.835 29.26 18.845 28.78C17.855 28.27 16.46 27.655 14.66 26.935C12.35 26.035 10.46 25.18 8.99 24.37C7.55 23.56 6.305 22.465 5.255 21.085C4.235 19.675 3.725 17.935 3.725 15.865C3.725 13.705 4.295 11.785 5.435 10.105C6.605 8.425 8.27 7.12 10.43 6.19C12.62 5.26 15.185 4.795 18.125 4.795C20.315 4.795 22.325 5.125 24.155 5.785C25.985 6.415 27.44 7.39 28.52 8.71C29.63 10.03 30.185 11.65 30.185 13.57C30.185 15.46 29.9 16.885 29.33 17.845C28.76 18.805 27.92 19.285 26.81 19.285C26.03 19.285 25.37 19.045 24.83 18.565C24.32 18.085 24.065 17.515 24.065 16.855C24.065 16.285 24.11 15.76 24.2 15.28C24.29 14.38 24.335 13.81 24.335 13.57C24.335 12.31 23.72 11.35 22.49 10.69C21.26 10.03 19.73 9.7 17.9 9.7C15.32 9.7 13.34 10.18 11.96 11.14C10.61 12.07 9.935 13.39 9.935 15.1C9.935 16.24 10.28 17.215 10.97 18.025C11.69 18.835 12.575 19.51 13.625 20.05C14.675 20.59 16.145 21.235 18.035 21.985C20.315 22.915 22.145 23.755 23.525 24.505C24.905 25.255 26.075 26.275 27.035 27.565C28.025 28.855 28.52 30.445 28.52 32.335C28.52 35.875 27.17 38.605 24.47 40.525C21.8 42.415 18.215 43.36 13.715 43.36ZM52.4312 32.965C52.8212 32.965 53.1212 33.145 53.3312 33.505C53.5712 33.865 53.6912 34.36 53.6912 34.99C53.6912 36.19 53.4062 37.12 52.8362 37.78C51.7262 39.13 50.1512 40.375 48.1112 41.515C46.1012 42.655 43.9412 43.225 41.6312 43.225C38.4812 43.225 36.0362 42.37 34.2962 40.66C32.5562 38.95 31.6862 36.61 31.6862 33.64C31.6862 31.57 32.1212 29.65 32.9912 27.88C33.8612 26.08 35.0612 24.655 36.5912 23.605C38.1512 22.555 39.9062 22.03 41.8562 22.03C43.5962 22.03 44.9912 22.555 46.0412 23.605C47.0912 24.625 47.6162 26.02 47.6162 27.79C47.6162 29.86 46.8662 31.645 45.3662 33.145C43.8962 34.615 41.3912 35.785 37.8512 36.655C38.6012 38.035 40.0262 38.725 42.1262 38.725C43.4762 38.725 45.0062 38.26 46.7162 37.33C48.4562 36.37 49.9562 35.125 51.2162 33.595C51.5762 33.175 51.9812 32.965 52.4312 32.965ZM41.0912 26.44C39.9812 26.44 39.0362 27.085 38.2562 28.375C37.5062 29.665 37.1312 31.225 37.1312 33.055V33.145C38.9012 32.725 40.2962 32.095 41.3162 31.255C42.3362 30.415 42.8462 29.44 42.8462 28.33C42.8462 27.76 42.6812 27.31 42.3512 26.98C42.0512 26.62 41.6312 26.44 41.0912 26.44ZM76.0372 32.965C76.4272 32.965 76.7272 33.145 76.9372 33.505C77.1772 33.865 77.2972 34.36 77.2972 34.99C77.2972 36.19 77.0122 37.12 76.4422 37.78C75.0922 39.43 73.7272 40.75 72.3472 41.74C70.9672 42.73 69.3322 43.225 67.4422 43.225C65.1322 43.225 63.2722 42.565 61.8622 41.245C60.4522 39.925 59.7472 38.17 59.7472 35.98C59.7472 34.81 60.3472 33.97 61.5472 33.46C62.8672 32.89 63.8122 32.29 64.3822 31.66C64.9522 31 65.2372 30.205 65.2372 29.275C65.2372 28.735 65.1172 28.33 64.8772 28.06C64.6672 27.79 64.3972 27.655 64.0672 27.655C63.2572 27.655 62.3572 28.24 61.3672 29.41C60.4072 30.58 59.5072 32.095 58.6672 33.955C57.8272 35.785 57.1672 37.675 56.6872 39.625C56.3572 41.035 55.9672 41.995 55.5172 42.505C55.0972 42.985 54.4222 43.225 53.4922 43.225C52.5622 43.225 51.8722 42.895 51.4222 42.235C51.0022 41.545 50.7172 40.495 50.5672 39.085C50.4172 37.675 50.3422 35.605 50.3422 32.875C50.3422 28.255 50.8072 23.44 51.7372 18.43C52.6972 13.42 54.0922 9.22 55.9222 5.83C57.7822 2.41 60.0022 0.699997 62.5822 0.699997C63.9622 0.699997 65.0722 1.3 65.9122 2.5C66.7822 3.67 67.2172 5.2 67.2172 7.09C67.2172 10.12 66.3322 13.27 64.5622 16.54C62.7922 19.78 59.9122 23.575 55.9222 27.925C55.8322 29.485 55.7872 31.09 55.7872 32.74C57.2272 28.99 58.8772 26.275 60.7372 24.595C62.5972 22.885 64.3372 22.03 65.9572 22.03C67.4572 22.03 68.6572 22.54 69.5572 23.56C70.4872 24.58 70.9522 25.84 70.9522 27.34C70.9522 28.99 70.5322 30.505 69.6922 31.885C68.8522 33.265 67.4122 34.495 65.3722 35.575C65.4922 36.385 65.8522 37.045 66.4522 37.555C67.0822 38.035 67.8322 38.275 68.7022 38.275C69.6322 38.275 70.5322 37.915 71.4022 37.195C72.2722 36.475 73.4122 35.275 74.8222 33.595C75.1822 33.175 75.5872 32.965 76.0372 32.965ZM61.6372 5.155C61.0972 5.155 60.4972 5.935 59.8372 7.495C59.1772 9.025 58.5322 11.11 57.9022 13.75C57.3022 16.36 56.8072 19.21 56.4172 22.3C58.2772 20.11 59.8072 17.725 61.0072 15.145C62.2372 12.565 62.8522 10.225 62.8522 8.125C62.8522 7.165 62.7472 6.43 62.5372 5.92C62.3272 5.41 62.0272 5.155 61.6372 5.155ZM93.7398 32.965C94.1298 32.965 94.4298 33.145 94.6398 33.505C94.8798 33.865 94.9998 34.36 94.9998 34.99C94.9998 36.19 94.7148 37.12 94.1448 37.78C93.0348 39.13 91.4598 40.375 89.4198 41.515C87.4098 42.655 85.2498 43.225 82.9398 43.225C79.7898 43.225 77.3448 42.37 75.6048 40.66C73.8648 38.95 72.9948 36.61 72.9948 33.64C72.9948 31.57 73.4298 29.65 74.2998 27.88C75.1698 26.08 76.3698 24.655 77.8998 23.605C79.4598 22.555 81.2148 22.03 83.1648 22.03C84.9048 22.03 86.2998 22.555 87.3498 23.605C88.3998 24.625 88.9248 26.02 88.9248 27.79C88.9248 29.86 88.1748 31.645 86.6748 33.145C85.2048 34.615 82.6998 35.785 79.1598 36.655C79.9098 38.035 81.3348 38.725 83.4348 38.725C84.7848 38.725 86.3148 38.26 88.0248 37.33C89.7648 36.37 91.2648 35.125 92.5248 33.595C92.8848 33.175 93.2898 32.965 93.7398 32.965ZM82.3998 26.44C81.2898 26.44 80.3448 27.085 79.5648 28.375C78.8148 29.665 78.4398 31.225 78.4398 33.055V33.145C80.2098 32.725 81.6048 32.095 82.6248 31.255C83.6448 30.415 84.1548 29.44 84.1548 28.33C84.1548 27.76 83.9898 27.31 83.6598 26.98C83.3598 26.62 82.9398 26.44 82.3998 26.44ZM109.516 28.195C110.176 28.195 110.731 28.435 111.181 28.915C111.661 29.365 111.901 29.935 111.901 30.625C111.901 31.015 111.811 31.435 111.631 31.885C111.151 32.995 110.476 33.925 109.606 34.675C108.736 35.425 107.776 35.8 106.726 35.8C105.886 35.8 105.166 35.5 104.566 34.9C103.996 34.3 103.711 33.49 103.711 32.47C103.711 31.9 103.741 31.285 103.801 30.625C103.861 30.145 103.891 29.815 103.891 29.635C103.891 29.395 103.831 29.215 103.711 29.095C103.621 28.975 103.501 28.915 103.351 28.915C102.931 28.915 102.361 29.425 101.641 30.445C100.921 31.435 100.201 32.755 99.4808 34.405C98.7608 36.055 98.1758 37.795 97.7258 39.625C97.3958 41.065 97.0208 42.025 96.6008 42.505C96.1808 42.985 95.4908 43.225 94.5308 43.225C93.3908 43.225 92.5808 42.625 92.1008 41.425C91.6508 40.225 91.4258 38.305 91.4258 35.665C91.4258 31.765 91.9808 28.06 93.0908 24.55C93.3608 23.68 93.7958 23.05 94.3958 22.66C95.0258 22.24 95.8958 22.03 97.0058 22.03C97.6058 22.03 98.0258 22.105 98.2658 22.255C98.5058 22.405 98.6258 22.69 98.6258 23.11C98.6258 23.59 98.4008 24.67 97.9508 26.35C97.6508 27.55 97.4108 28.6 97.2308 29.5C97.0508 30.4 96.9008 31.51 96.7808 32.83C97.7708 30.25 98.8808 28.15 100.111 26.53C101.341 24.91 102.541 23.755 103.711 23.065C104.881 22.375 105.946 22.03 106.906 22.03C107.776 22.03 108.436 22.285 108.886 22.795C109.366 23.275 109.606 23.995 109.606 24.955C109.606 25.525 109.441 26.605 109.111 28.195H109.516Z" fill="#EDDECC"/>
</svg>
